<svg id="Capa_1" enable-background="new 0 0 512 512" height="512" viewBox="0 0 512 512" width="512" xmlns="http://www.w3.org/2000/svg"><g><g><g><g><g><g><g><g><g><g><g><g><g><g><g><g><g><g><g><g><circle cx="256" cy="256" fill="#adcfff" r="256"/></g></g></g></g></g></g></g></g></g></g></g></g></g></g></g></g></g></g></g><path d="m325.334 81.82-32.253-32.253-2.875 49.189-28.385-28.385 5.46 52.725-30.196-30.196 9.817 31.309 45.793 45.793-77.511 180.946-137.523 62.766 77.761 77.761c30.877 13.206 64.872 20.525 100.578 20.525 141.385 0 256-114.615 256-256 0-18.947-2.077-37.407-5.982-55.181l-167.863-167.862z" fill="#8bbbff"/><path d="m254 124.61c-6.411-8.439-12.302-18.856-16.914-31.71 0 0-5.392 29.441 16.914 59.899l3-10.466z" fill="#fd5"/><path d="m277.453 414.25 33.462-34.555-10.832-10.376-43.941 45.494 37.5 35.312h21.23z" fill="#7e5d40"/><path d="m254 307.796-88.606 45.126-74.701 35.918-13.032 24.874 92.75-22.902c32.794 7.429 60.383 9.553 83.589 7.919l18.565-44.325z" fill="#fff"/><path d="m338.155 32.957s-29.698 17.398-28.005 66.407c.102 2.966-2.362 5.384-5.327 5.242-.036-.002-.073-.003-.109-.005-1.967-.092-3.709-1.311-4.453-3.134-5.476-13.432-8.991-30.608-7.181-51.899 0 0-17.454 19.877-10.286 55.765.393 1.968-.474 4-2.224 4.981-.024.013-.048.027-.071.04-2.317 1.305-5.239.498-6.491-1.847-5.481-10.261-9.948-22.829-12.188-38.135 0 0-11.764 22.032 1.482 53.836.456 1.095.403 2.339-.19 3.366-.012.021-.024.042-.037.064-1.323 2.3-4.522 2.61-6.219.57-.963-1.157-1.916-2.356-2.859-3.597v28.19c1.812 2.474 3.783 4.953 5.978 7.425l48.689-6.197 36.571-24.858c.003-.002-27.902-42.171-7.08-96.214z" fill="#ffd322"/><path d="m364.943 170.391c0-29.255-23.716-52.971-52.971-52.971s-52.971 23.716-52.971 52.971c0 7.764 4.723 23.858 4.723 23.858 1.283 7.491.406 15.863-2.045 24.733l.012-.006 26.534 71.391-34.225 17.429v90.935c111.286-7.837 121.744-102.14 121.744-112.665 0-17.118-5.98-32.742-15.823-44.673-9.995-15.429 5.022-45.951 5.022-71.002z" fill="#efefef"/><path d="m254 239.022c-25.326 53.267-88.606 113.901-88.606 113.901s49.094-.843 88.606-17.263l6.894-47.62z" fill="#efefef"/><path d="m261.69 218.976-.012.006c-1.786 6.461-4.422 13.191-7.679 20.041v96.638c20.327-8.447 38.121-21.012 45.385-39.714 21.386-55.055-37.694-76.971-37.694-76.971z" fill="#d6d6d6"/><path d="m362.366 154.027h18.587c10.211 0 18.489 8.278 18.489 18.489v16.129h-.004c-1.461-2.582-3.845-4.569-6.702-5.519-.015 8.347-6.784 15.109-15.135 15.109h-16.548l-6.673-22.104z" fill="#2d2d2d"/><g><g><circle cx="313.508" cy="166.141" fill="#fff" r="10.98"/></g><g><circle cx="313.508" cy="166.141" fill="#2d2d2d" r="7.764"/></g></g><g><path d="m235.218 450.125-37.5-35.312 35.389-36.833h20.991l-35.068 36.27 37.745 35.875z" fill="#9f7651"/></g></g></svg>