<svg id="Capa_1" enable-background="new 0 0 512 512" height="512" viewBox="0 0 512 512" width="512" xmlns="http://www.w3.org/2000/svg"><g><g><path d="m256 0c-139.887 0-253.55 112.204-255.943 251.52l209.625 256.29c15.023 2.745 30.501 4.19 46.318 4.19 141.385 0 256-114.615 256-256s-114.615-256-256-256z" fill="#85d249"/></g><g><path d="m465.667 173.667s-14.333 27.51-50 11.755l15.666-28.422 27.333-5z" fill="#7e5966"/></g><g><path d="m456.37 96.654s25.63 5.013 33.296 43.679c4.119 20.773-3.307 39.621-11.062 52.618-3.357 5.626-11.918 3.468-12.224-3.076-.285-6.095-1.362-12.18-4.047-16.208-7.333-11-31-16.667-31-16.667z" fill="#fdca00"/></g><g><path d="m456.37 96.654-25.037 60.346s11.724 2.812 21.226 8.311c12.499-21.527 20.021-40.444 22.486-56.589-9.166-10.192-18.675-12.068-18.675-12.068z" fill="#feac00"/></g><g><path d="m152.667 170.302c-22.935 85.899-40.869 297.229-40.869 297.229 28.927 19.758 62.107 33.749 97.892 40.288 45.99-8.52 131.107-34.418 152.31-101.49 25.667-81.191-11.667-135.743 41.13-196.05 25.732-29.392 52.67-57.199 57.6-107.99 5.27-54.289-22.73-102.289-123.73-102.289s-161.399 84.403-184.333 170.302z" fill="#ff4155"/></g><g><path d="m152.667 170.302c-22.935 85.899-40.869 297.229-40.869 297.229 28.927 19.758 62.107 33.749 97.892 40.288 11.969-2.218 26.591-5.616 42.044-10.607-66.344-17.191-81.672-40.212-81.672-40.212 40.062-25 120.938-77 115.938-174.116-3.827-74.333-79.907-137.143-115.393-162.523-7.447 16.168-13.424 33.024-17.94 49.941z" fill="#e80054"/></g><g><path d="m143.306 169.672c-27.835-.827-59.155 7.266-90.954 32.972-17.367 14.04-35.103 30.687-52.295 48.876-.026 1.492-.057 2.982-.057 4.48 0 87.898 44.306 165.44 111.796 211.536 37.516-19.16 73.385-41.861 102.092-65.068 31.799-25.706 46.275-54.635 51.299-82.025 14.056-76.615-44.022-148.459-121.881-150.771z" fill="#ff4155"/></g><g><path d="m111.796 467.536c14.032-7.167 27.833-14.829 41.115-22.827-101.819-78.539-68.346-211.456-46.443-270.667-17.491 4.765-35.723 13.732-54.117 28.602-17.367 14.04-35.103 30.687-52.295 48.876-.025 1.492-.056 2.982-.056 4.48 0 87.898 44.306 165.44 111.796 211.536z" fill="#e80054"/></g><g><path d="m211.28 404.542c-30.122 19.474-46.308-7.232-38.703-35.583 1.614-6.016-2.724-11.964-8.933-12.462-11.98-.96-28.203-4.851-33.645-18.388-4.457-11.089-.575-21.4 4.479-28.984 3.776-5.665.797-13.361-5.778-15.125-9.774-2.622-21.021-7.994-26.076-19-4.943-10.762.418-21.524 7.006-29.589 4.573-5.598 2.058-14.087-4.906-16.024-36.832-10.244-25.719-47.091 1.744-55.344-17.491 4.765-35.723 13.732-54.117 28.602-17.367 14.04-35.103 30.687-52.295 48.876-.025 1.491-.056 2.981-.056 4.479 0 87.898 44.306 165.44 111.796 211.536 36.397-18.588 71.223-40.511 99.484-62.994z" fill="#fff442"/></g><g><path d="m106.469 174.042c-17.491 4.765-35.723 13.732-54.117 28.602-17.367 14.04-35.103 30.687-52.295 48.876-.026 1.492-.057 2.982-.057 4.48 0 87.898 44.306 165.44 111.796 211.536 14.033-7.167 27.827-14.834 41.107-22.833-79.023-60.961-76.54-154.673-61.23-221.259-20.221-14.354-8.699-42.34 14.796-49.402z" fill="#ffe400"/></g><g><path d="m461.051 98.305c-18.66-21.599-48.317-35.565-81.718-35.565-56.471 0-102.249 39.917-102.249 89.158 0 49.24 45.779 89.158 102.249 89.158 1.274 0 2.54-.027 3.803-.068 4.526-10.176 10.932-20.357 19.993-30.708 25.732-29.392 52.67-57.199 57.6-107.99.13-1.333.234-2.661.322-3.985z" fill="#e6f0ff"/></g><g><path d="m317.084 151.897c0-43.267 35.348-79.332 82.235-87.446-6.465-1.117-13.145-1.712-19.986-1.712-56.471 0-102.249 39.917-102.249 89.158 0 49.24 45.779 89.158 102.249 89.158 1.274 0 2.54-.027 3.803-.068.732-1.646 1.519-3.292 2.353-4.939-39.836-12.181-68.405-45.254-68.405-84.151z" fill="#c5def8"/></g><g><circle cx="377" cy="108.319" fill="#543438" r="15"/></g><g><circle cx="384.5" cy="100.819" fill="#fff" r="7.5"/></g><g><path d="m66 402.5c-9.611-11.782 1.695-30.042 11.673-42.216 4.522-5.517 1.9-13.829-4.93-15.885-34.326-10.331-29.056-37.425-23.33-51.924 1.932-4.892-.322-10.341-5.031-12.684-23.46-11.672-25.099-46.194 1.701-71.979-15.349 12.892-30.897 27.701-46.026 43.707-.026 1.493-.057 2.983-.057 4.481 0 79.005 35.799 149.638 92.05 196.596 1.946-7.079 5.641-14.191 9.314-20.106 3.745-6.032.188-13.987-6.821-15.119-9.479-1.53-20.839-5.427-28.543-14.871z" fill="#4b9fdb"/></g></g></svg>